<?xml version="1.0" encoding="utf-8"?>
<!-- Generator: Adobe Illustrator 16.0.0, SVG Export Plug-In . SVG Version: 6.00 Build 0)  -->
<!DOCTYPE svg PUBLIC "-//W3C//DTD SVG 1.1//EN" "http://www.w3.org/Graphics/SVG/1.1/DTD/svg11.dtd">
<svg version="1.1" id="Layer_1" xmlns="http://www.w3.org/2000/svg" xmlns:xlink="http://www.w3.org/1999/xlink" x="0px" y="0px"
	 width="98.5px" height="34.222px" viewBox="0 0 98.5 34.222" enable-background="new 0 0 98.5 34.222" xml:space="preserve">
<text id="XMLID_1_" transform="matrix(1.2087 0 0 1 -118.3706 22.0176)" fill="#1D2088" font-family="'TrebuchetMS-Bold'" font-size="17.6903">INWEBS</text>
<path fill="none" stroke="#1D2088" stroke-width="2" stroke-miterlimit="10" d="M-35.526,19.902c0,5.916-4.797,10.714-10.714,10.714
	h-70.644c-5.917,0-10.714-4.798-10.714-10.714v-8.253c0-5.918,4.797-10.715,10.714-10.715h70.644
	c5.917,0,10.714,4.797,10.714,10.715V19.902z"/>
<g>
	<path fill="#1D2088" d="M14.748,23.268V10.613h2.715v12.654H14.748z"/>
	<path fill="#1D2088" d="M30.68,23.44l-7.423-8.007v7.843h-2.61V10.613h1.305l7.225,7.636v-7.636h2.61V23.44H30.68z"/>
	<path fill="#1D2088" d="M47.25,23.44h-1.117l-3.342-7.981l-3.247,7.981h-1.117l-5.022-12.827h2.83l2.871,7.636l3.101-7.636h1.189
		l3.111,7.636l2.861-7.636h2.83L47.25,23.44z"/>
	<path fill="#1D2088" d="M56.531,12.608v2.963h5.054v1.908h-5.054v3.793h6.934v1.995h-9.648V10.613h9.763v1.995H56.531z"/>
	<path fill="#1D2088" d="M70.658,23.268h-4.677V10.622c2.06-0.081,3.504-0.121,4.333-0.121c1.587,0,2.827,0.281,3.722,0.842
		c0.895,0.561,1.342,1.363,1.342,2.405c0,1.002-0.641,1.794-1.921,2.375c1.9,0.547,2.851,1.676,2.851,3.387
		c0,1.151-0.526,2.065-1.577,2.742S72.322,23.268,70.658,23.268z M68.695,12.418v3.032c0.418,0.023,0.856,0.035,1.316,0.035
		c1.768,0,2.651-0.55,2.651-1.65c0-0.973-0.804-1.459-2.412-1.459C69.827,12.375,69.309,12.39,68.695,12.418z M68.695,17.204v4.181
		c0.55,0.04,0.996,0.061,1.337,0.061c1.211,0,2.09-0.17,2.637-0.51c0.546-0.34,0.819-0.904,0.819-1.693
		c0-0.72-0.254-1.243-0.763-1.571c-0.508-0.329-1.396-0.493-2.662-0.493C69.799,17.178,69.343,17.187,68.695,17.204z"/>
	<path fill="#1D2088" d="M77.977,22.568l1.003-2.013c1.071,0.621,2.126,0.933,3.163,0.933c1.594,0,2.392-0.461,2.392-1.382
		c0-0.432-0.188-0.844-0.564-1.235s-1.15-0.831-2.323-1.317c-1.173-0.487-1.963-0.887-2.37-1.201s-0.72-0.687-0.939-1.119
		c-0.219-0.432-0.329-0.91-0.329-1.434c0-0.979,0.434-1.791,1.3-2.436c0.867-0.645,1.979-0.968,3.336-0.968
		c1.769,0,3.066,0.274,3.895,0.821l-0.824,1.935c-0.954-0.564-1.96-0.847-3.018-0.847c-0.627,0-1.112,0.137-1.457,0.41
		c-0.344,0.274-0.517,0.629-0.517,1.067c0,0.726,0.971,1.48,2.913,2.263c1.023,0.415,1.761,0.796,2.214,1.145
		c0.452,0.349,0.797,0.754,1.033,1.218c0.236,0.463,0.355,0.98,0.355,1.551c0,1.024-0.489,1.868-1.468,2.53
		c-0.978,0.662-2.288,0.993-3.931,0.993C80.413,23.483,79.125,23.179,77.977,22.568z"/>
</g>
<path fill="none" stroke="#1D2088" stroke-width="2" stroke-miterlimit="10" d="M95.974,21.152c0,5.916-4.797,10.714-10.714,10.714
	H14.616c-5.917,0-10.714-4.798-10.714-10.714v-8.253c0-5.918,4.797-10.715,10.714-10.715H85.26c5.917,0,10.714,4.797,10.714,10.715
	V21.152z"/>
</svg>
